<?xml version="1.0" encoding="UTF-8"?>
<svg id="Layer_2" data-name="Layer 2" xmlns="http://www.w3.org/2000/svg" viewBox="0 0 674.27 422.74">
  <g id="CYD">
    <path d="M230.27,279.76c-2.87,1.29-6.46,2.14-10.75,2.57-4.3.43-8.18,1.66-11.65,3.66-.27.7.02,1.09.87,1.17.84.09.98.65.42,1.71-1.59.83-3.04,1.39-4.34,1.68-1.3.3-2.75.86-4.34,1.69-.63.4-.84.83-.62,1.31.21.48.19,1.07-.07,1.76.76.92,1.53,1.19,2.33.77.79-.41,1.53-.48,2.23-.22.92-.76,1.99-.86,3.22-.32,1.22.55,2.46.43,3.72-.37,1.19,1.88.96,3-.67,3.32-1.64.33-2.93.71-3.89,1.14-1.03-.23-1.34-.03-.94.59.39.64.12,1.16-.84,1.59.39.63.99.74,1.79.32.79-.41,1.55-.32,2.27.27.43.96.19,1.9-.72,2.82-.91.93-.83,1.67.22,2.23.56,2.28-.14,3.6-2.11,3.97-1.97.37-3.04,1.39-3.19,3.07-1.66.17-2.72,1.27-3.17,3.32.72.6,1.51.94,2.35,1.02.84.09,1.14.64.91,1.66-1.66.17-2.75.86-3.29,2.08-.55,1.23-1.28,2.22-2.21,2.97l-.44.55,3.61,1.14c-.3.36-.68.66-1.16.86-.48.22-.92.02-1.32-.62-.92.77-2.15,1.05-3.66.86-1.52-.17-2.58.09-3.17.82.79,1.25,1.59,1.76,2.4,1.51.8-.24,1.74-.08,2.8.48.03.33-.43.71-1.38,1.14-.96.43-1.05,1.28-.25,2.53-1.02-.23-2.37-.34-4.03-.35-1.67,0-2.76.86-3.25,2.58.1.99-.26,1.61-1.06,1.85-.81.26-1.72.35-2.72.27-1.01-.06-1.92.03-2.73.27-.81.26-1.33.89-1.56,1.91l2.13,1.29c-2.98.3-5.83,1-8.55,2.1-2.73,1.1-5.71,2.15-8.95,3.14-3.67.03-7.12.54-10.35,1.53-3.24.99-6.74,1-10.51.05-1.39-.54-4.23-1.5-8.54-2.9-4.31-1.4-9.05-2.93-14.22-4.58-5.17-1.65-10.35-3.39-15.53-5.21-5.18-1.81-9.7-3.54-13.52-5.16-3.9-2.27-7.88-4.54-11.94-6.81-4.07-2.26-8.06-4.7-11.99-7.31-11.82-8.16-22.74-18.08-32.74-29.76-10.01-11.68-17.19-24.31-21.55-37.89-6.01-10.07-9.92-22.53-11.73-37.36C.04,197.64-.44,182.76.4,167.83c.84-14.93,2.64-28.79,5.36-41.57,2.73-12.79,5.61-22.33,8.65-28.64,9.16-18.59,21.73-36.28,37.74-53.06C68.17,27.78,85.11,13.66,102.99,2.2c1.58-.82,3.94-1.39,7.09-1.71S116.53.02,120.03,0c3.5-.02,6.85.15,10.06.49,3.2.36,5.83.76,7.88,1.22.79,1.26,1.59,1.76,2.4,1.51.8-.24,1.74-.09,2.8.47.72.6,1.2,1.22,1.43,1.86.23.65.71,1.27,1.44,1.86l1.48-.15c-.5,1.72-.92,2.59-1.24,2.63.82,1.59,2.73,3.15,5.72,4.68,2.99,1.54,5.05,2.92,6.17,4.14-.46,2.05.06,4,1.59,5.85,1.25-.79,2.08-.79,2.5,0,.4.79.98,1.49,1.71,2.08-.2,1.35-.47,2.8-.82,4.33-.35,1.54.18,2.74,1.61,3.6l1.54.35c.2,5.32-1.78,9.02-5.9,11.1-4.13,2.09-7.83,5.12-11.1,9.11-2.91,4.3-5.99,8.53-9.24,12.68-3.26,4.17-6.51,8.41-9.74,12.73-2.64,3.6-6.04,8.86-10.19,15.78-4.15,6.92-8.33,14.27-12.57,22.02-4.23,7.77-8.15,15.33-11.75,22.69-3.6,7.37-6,13.45-7.19,18.24-2.91,10.97-4.19,22.44-3.82,34.41.36,11.97,3.05,23.05,8.07,33.22-.4,2.71.3,4.72,2.11,6.05,1.8,1.32,2.65,3.16,2.55,5.5,2.53,2.08,3.93,4.28,4.16,6.59,3.54,5.33,6.44,9.37,8.72,12.14,2.28,2.78,4.58,4.97,6.91,6.57,2.33,1.61,5.21,2.91,8.64,3.89,3.43,1,7.89,2.22,13.38,3.67,3.76.96,9.89,1.36,18.38,1.17,8.49-.18,16.83-1.01,25.03-2.5,4.56-1.12,8.05-2.06,10.48-2.8,2.43-.74,4.69-1.47,6.79-2.18,2.1-.71,4.37-1.35,6.81-1.93,2.44-.57,5.99-.93,10.66-1.06.39.63.19,1.16-.6,1.56-.79.42-1.15.95-1.09,1.61-.86,1.42-1.64,2.84-2.33,4.24-.7,1.4-.8,2.92-.3,4.53l1.64,1.33c-.3.36-.73,1.08-1.29,2.13,2.44,1.1,4.99,1.59,7.66,1.49,2.65-.09,5.33.05,8.05.45l1.04.4ZM422.68,154.33c-2.66,25.23-8.47,51.29-17.43,78.18-8.96,26.89-19.01,52.29-30.13,76.19-11.13,23.9-22.58,45.32-34.36,64.24-11.79,18.92-21.66,33.03-29.63,42.32-2.66,1.66-5.48,3.16-8.46,4.48-2.99,1.33-6.15,2.32-9.46,2.99-.67-.67-.5-1.33.5-1.99.99-.67.66-1.33-.99-1.99,0-.67.16-1.58.5-2.74.33-1.17-.17-2.08-1.5-2.74.66-.67,1-1.33,1-1.99l-1.99-1c0-.67.33-1.16.99-1.49.66-.34,1-.84,1-1.5-1.33-.67-2.42-.33-3.24,1-.83,1.32-1.91,1.82-3.23,1.49-1.99.33-4.23,1-6.72,1.99-2.49.99-4.73.82-6.72-.5,1.33-.67,1.33-1.33,0-1.99-.67-.67-1.24-.99-1.74-.99s-1.08-.17-1.74-.5c0-.33-.33-.83-1-1.49-1.33.99-2.24,1.07-2.74.25-.5-.84-1.24-1.58-2.24-2.24l1.5-1.5c-.67-.67-1.33-.75-1.99-.25-.67.5-1.33,1.07-1.99,1.74h-1.49c.66,0,1.16-.17,1.49-.5.66-.34.66-.84,0-1.5-1.67.66-2.91.82-3.73.5-.84-.33-2.08,0-3.74,1,0-.34.5-1,1.5-1.99-.67-1.33-1.42-1.58-2.24-.75-.84.82-1.74,1.24-2.74,1.24-.67-.99-.84-1.83-.5-2.49.32-.67.16-1.5-.5-2.49-.67.33-1.24.75-1.74,1.24s-1.08.58-1.74.25c-.33-1.67-1.17-2.42-2.49-2.24-1.33.16-2.33-.59-2.99-2.24.99-1,.75-2.08-.75-3.24-1.49-1.16-1.58-2.57-.25-4.23,1.99-9.64,5.89-18.51,11.7-26.65,5.8-8.13,11.37-16.51,16.68-25.14,4.65-11.28,9.46-22.41,14.44-33.36,4.98-10.96,10.29-21.74,15.94-32.37-1.99-2.99-4.66-4.98-7.97-5.98-3.32-.99-5.31-3.31-5.97-6.97-3.66-.66-6.31-2.24-7.97-4.73-1.67-2.49-3.82-4.73-6.48-6.72-3.32-2.65-6.06-5.64-8.22-8.96-2.16-3.31-5.56-8.3-10.21-14.94-3.32-6.3-6.15-11.86-8.46-16.68-2.33-4.8-4.41-9.46-6.23-13.94-1.83-4.48-3.66-9.04-5.48-13.7-1.83-4.65-4.07-9.79-6.72-15.44-6.97-15.27-12.2-31.37-15.69-48.3-3.48-16.93-5.23-34.03-5.23-51.29.66-1,.91-2.07.75-3.24-.17-1.16-.25-2.4-.25-3.73,1,0,1.74.33,2.24.99.5.67.91,1.33,1.25,1.99.99-1.32,1.32-2.82.99-4.48-.33-1.65-.33-3.31,0-4.98,1-.66,1.99-.75,2.99-.25.99.5,1.65.08,1.99-1.24-.33-2.65.5-4.48,2.49-5.48,1.99-.99,3.16-2.82,3.49-5.48.99.33,1.74.17,2.24-.5.5-.66,1.07-1.16,1.74-1.5.66.67,1.32.92,1.99.75.66-.16,1.33-.07,1.99.25v-1c.66-.33,1.32,0,1.99,1,.66-.67.82-1,.5-1,1,0,2.24.5,3.74,1.5,1.49.99,2.57,1.83,3.23,2.49l-1.49-4.48,4.98,3.48-1-6.97c3.99,3.66,7.22,8.14,9.71,13.45,2.49,5.31,5.23,10.46,8.22,15.44l-1-8.96-.5-2.99c-.33-1.66-.67-3.32-.99-4.98-.67-1.32-1.17-2.99-1.5-4.98,6.97,9.96,13.36,21.66,19.17,35.11,5.8,13.45,11.7,26.97,17.68,40.58,5.98,13.62,12.45,26.82,19.43,39.59,6.97,12.78,15.27,23.65,24.9,32.61,3.65-10.29,6.55-21.58,8.72-33.86,2.15-12.28,4.06-24.56,5.72-36.85,1.65-12.28,3.15-23.9,4.48-34.86,1.32-10.96,2.82-20.08,4.48-27.39.66,0,1.32,1.16,1.99,3.48.66,2.33,1.49,3.16,2.49,2.49-.34-.66,0,.25.99,2.74.99,2.49,1.5,4.07,1.5,4.73l1.49-10.95c.66,1.67,2.32,2.08,4.98,1.24,2.65-.82,4.31-1.57,4.98-2.24.33-.66.82-.99,1.5-.99s1.32.17,1.99.5c1.32-1.66,2.57-2.99,3.73-3.99,1.16-.99,2.07-2.32,2.74-3.98.99.67,2.15.33,3.48-1l3.99-2.49c.66,1.99,2.24,2.74,4.73,2.24,2.49-.5,4.23.59,5.23,3.24v-1.5c.66,1.33,1.57,2.24,2.74,2.74,1.16.5,2.07,1.25,2.74,2.24,2.65,6.64,5.06,13.37,7.22,20.17,2.16,6.81,4.06,13.53,5.73,20.17-1.67,1.67-1.99,3.41-1,5.23,1,1.83,1.32,3.91,1,6.23.32,8.64.82,17.26,1.49,25.89.66,8.64.5,17.43-.5,26.39ZM464.54,94.58c-.67-.67-.92-1.5-.75-2.49.16-.99-.08-1.82-.75-2.49l-3.48-41.33c.32-.66.5-.5.5.5s.16,1.67.5,1.99l1.5.5c0,.34-.42,1-1.25,1.99-.83,1-.58,1.83.75,2.49-.67.34-.83,2.49-.5,6.48.33,3.99.75,8.3,1.25,12.95.5,4.66.99,8.89,1.49,12.7.5,3.82.75,6.06.75,6.72ZM673.19,130.43c2.32,17.93.91,35.94-4.23,54.03-5.15,18.1-11.87,34.94-20.17,50.54-4.32,8.3-11.04,17.93-20.17,28.88-9.13,10.96-19.17,21.75-30.12,32.37-10.96,10.62-22,20.59-33.12,29.88-11.13,9.3-21,16.6-29.63,21.91-.99.34-3.48,1.08-7.47,2.24-3.98,1.16-8.21,2.41-12.7,3.74-4.48,1.32-8.55,2.57-12.2,3.73-3.66,1.16-5.98,1.91-6.97,2.24-2.66-.67-3.82-1.42-3.48-2.24.32-.83-.84-1.24-3.49-1.24,0-.67-.17-1-.5-1h-.99l.5-.5c-.67-.33-1.74-1.91-3.24-4.73-1.49-2.82-4.73-3.9-9.71-3.23,0-.33-.33-.82-.99-1.5l.5-2.99-3.48.5c.66-.99,1.65-1.74,2.99-2.24,1.32-.5,1.65-1.24.99-2.24l-1.99.5c.67-.33,1-1,1-1.99,0,.33-.33.17-1-.5.33,0,.67-.33,1-1,.33-.66.82-.99,1.5-.99-.34-.33-.5-.66-.5-1h.5c-.67-.99-1.33-1.16-1.99-.5-.67.67-1.33.5-1.99-.5l-.5.5.5-.5c1.65-1.32,3.73-3.07,6.22-5.23,2.49-2.16,4.56-4.06,6.23-5.73l-3.48,1.99-2.49,1.5c2.99-3.65,6.3-6.8,9.96-9.46h-.5c-2.33.67-4.57,1.74-6.72,3.23-2.17,1.5-4.07,3.08-5.73,4.73,2.99-3.65,6.8-7.05,11.45-10.21,4.65-3.15,8.79-6.55,12.45-10.21-.33-.66-1.33-.5-2.99.5-1.67.99-2.82,1.33-3.48.99l4.98-2.49c-2.66-.66-5.15-1.16-7.47-1.49-2.33-.33-4.15.17-5.48,1.49-1.33-1.32-2.33-1.32-2.99,0-.67,1.33-1.67,1.33-2.99,0l-1.99-1.99.5-.5c0-.33-.67-.5-1.99-.5-.33-1.32-1.08-2.49-2.24-3.48-1.16-1-1.08-1.82.25-2.49,0-1.65-.33-8.05-.99-19.17-.67-11.12-1.33-24.73-1.99-40.83-.67-16.1-1.33-33.44-1.99-52.03-.67-18.59-1.33-35.93-1.99-52.04-.67-16.1-1.25-29.79-1.74-41.08-.5-11.29-.75-17.76-.75-19.42-.34-4.65-.42-8.72-.25-12.2.16-3.49.58-8.05,1.25-13.7v16.43c.66-.66,1.07-1.91,1.24-3.74.16-1.82.16-3.73,0-5.72-.17-1.99-.25-3.99-.25-5.98s.16-3.31.5-3.98c.32.33.5.33.5,0s.16-.5.5-.5c0-.66-.17-1.16-.5-1.49-.34-.33-.34-.82,0-1.5l3.48-.5c.66.99.82,1.99.5,2.99-.33,1,.16,1.83,1.5,2.49v1.5h.5c.33-2.32.25-4.65-.25-6.97-.5-2.32.58-4.31,3.24-5.98,0-.66.16-1.16.5-1.49.33,1.33,1.16,1.83,2.49,1.49,1.32-.32,2.16.17,2.49,1.5.66-.33,1.99-.33,3.98,0,1.99.33,3.32-.33,3.99-1.99l3.49-.5c0-.33.75-.75,2.24-1.24,1.49-.5,3.15-.91,4.98-1.25,1.82-.33,3.56-.66,5.23-.99,1.65-.33,2.65-.67,2.99-1,.66-.66,1.41-.99,2.24-.99h2.74c1.32-.66,2.49-1,3.49-1,.66.34,1.24.42,1.74.25.5-.16,1.07-.07,1.74.25,10.62-1,21.24-1.33,31.87-1,10.62.33,21.74,1.83,33.36,4.48,27.22,8.64,49.3,24.4,66.23,47.31,6.64,8.64,11.21,17.85,13.7,27.63,2.49,9.8,5.05,19.51,7.72,29.13ZM605.96,124.95c-2.66-7.63-6.48-15.6-11.45-23.9-4.98-8.29-11.95-13.94-20.92-16.93-6.64-2.32-12.87-4.65-18.67-6.97-5.81-2.32-12.04-4.31-18.67-5.97-.67.33-1.5.33-2.49,0-1-.33-1.83-.16-2.49.5-.34-.99-1.67-1.99-3.99-2.99.66,2.66,1.24,5.31,1.74,7.97.5,2.66,1.07,5.31,1.74,7.97h-.5c2.32,11.29,4.56,24.24,6.72,38.85,2.16,14.61,4.06,29.38,5.72,44.32,1.66,14.94,2.99,29.47,3.99,43.57.99,14.11,1.5,26.32,1.5,36.6,7.63-6.31,14.85-12.95,21.66-19.92,6.8-6.97,12.2-14.77,16.18-23.41,1.66,0,2.32-.75,1.99-2.24-.33-1.5.16-2.57,1.5-3.24,7.97-9.63,12.95-21.41,14.94-35.36,1.99-13.94,2.49-26.89,1.5-38.84Z"/>
  </g>
</svg>