<?xml version="1.0" encoding="UTF-8"?>
<svg id="Layer_2" data-name="Layer 2" xmlns="http://www.w3.org/2000/svg" viewBox="0 0 486.92 500">
  <defs>
    <style>
      .cls-1 {
        fill: #5885c4;
      }

      .cls-2 {
        fill: #9bb6dc;
      }

      .cls-3 {
        fill: #fff;
      }

      .cls-4 {
        fill: #f60;
      }

      .cls-5 {
        fill: #f8a712;
      }
    </style>
  </defs>
  <g id="app_icon" data-name="app icon">
    <g>
      <path class="cls-3" d="M312.54,252.56c-.03-3.21-.44-6.34-1.22-9.35-.05-.3-.1-.61-.15-.91,4.98-5.8,10.58-11.41,16.52-16.15,6.11-3.85,12.81-6.33,19.68-7.1,14.14-1.57,26.83,4.36,35.88,16.68,3.34,30.33-3.89,48.51-22.7,56.72-9.58-3.09-19.31-4.76-28.39-4.74-7.1.02-14.03.81-20.65,2.3,2.21-10.74,2.55-23.16,1.03-37.44ZM258.76,329.76c-2.76.43-5.57.69-8.42.74-40.5.65-64.05-16.88-66.45-49.31,2-45.77,36.12-65.63,69.03-64.98,28.51.55,45.29,14.33,49.32,29.53.12.8.23,1.58.34,2.35.02.17.04.34.07.52.09.66.17,1.3.25,1.94.02.2.05.4.07.6.09.75.17,1.49.25,2.21,0,.01,0,.02,0,.03h0c1.69,15.71,1,28.83-2.07,39.63-12.85,4.61-24.12,12.08-32.66,21.96-3.94,4.56-7.19,9.52-9.71,14.79Z"/>
      <path class="cls-1" d="M389.56,306.73c-5.18-3.6-10.75-6.76-16.51-9.41,13.92.38,26.93,1.29,38.68,2.74-1.52,7.19-3.36,14.38-5.39,21.56-4.67-5.36-10.29-10.36-16.78-14.88ZM348.12,440.54s-.09,0-.14,0c-1.88,0-3.58-1.12-4.31-2.86-.75-1.78-.34-3.84,1.05-5.19,6.09-5.93,9.48-13.89,9.54-22.42.06-7.54-2.6-14.56-7.29-19.26-.39-.39-.79-.76-1.19-1.12-13.05,20.16-36.12,34.18-58.1,38.79-6.52,1.37-12.88,2.05-18.97,2.05-13.26,0-25.26-3.2-34.87-9.46-15.36-9.99-25.34-28.64-26.07-48.66-.53-14.71,2.26-27.1,8.29-37.06-12.85-4.16-21.77-10.8-27.95-18.21-31.83,7.8-55.67,16.98-66.57,26.09-2.38,1.99-5.17,4.87-5.68,7.75,7.39,17.97,13.95,36.58,13.22,56.6-.56,15.31-1.58,28.39-3.94,40.72,37.67,27.47,82.9,42.31,130.42,42.31s89.28-13.73,126.06-39.22c-1.48-5.8-2.24-11.79-2.4-17.95-9.58,4.3-20.17,6.76-31.12,7.08ZM102.45,225.44c33.07-7.77,62.85-13.65,92.27-18.13,8.57-10.74,18.96-19.36,30-24.65,9-4.31,17.98-6.27,26.67-5.98,14.47.06,28.25,7.05,40.16,20.57,9.45-.5,19.32-.86,29.43-1.03,13.77-9.46,29.55-12.72,42.41-8.27,4.69,1.62,9.92,4.56,14.7,9.78,6.98.53,13.94,1.2,20.82,2.03-14.76-28.83-38.12-57.66-67.42-73.6-2.17,5.73-4.26,11.5-6.3,17.19-1.65,4.57-3.35,9.3-5.06,13.9-.63,1.7-2.19,2.88-4,3.03-.13.01-.26.02-.39.02-1.67,0-3.22-.89-4.06-2.35l-.26-.44c-20.52-35.28-66.06-53.09-106-41.48-49.94,18.2-87.71,60.97-102.96,109.4ZM346.35,209.73c12.07-1.34,23.54,1.84,33.11,8.92-4.02-11.41-10.5-18.85-19.13-21.84-2.88-1-5.97-1.48-9.17-1.48-10.71,0-22.74,5.39-32.71,15.06-4.24,4.11-8.29,9.35-11.16,15.21.21.66.41,1.31.6,1.97,0,.02.01.04.02.07.25.87.49,1.73.72,2.59,10.2-11.4,23.62-18.94,37.72-20.5ZM295.22,220.07c-1.98-4.49-4.45-8.84-7.53-12.81-10.93-14.05-24-21.24-38.02-21.24-6.79,0-13.79,1.68-20.89,5.08-14.55,6.97-27.92,20.57-36.69,37.32-1.77,3.38-3.31,6.79-4.61,10.22,3.77-5.6,8.34-10.59,13.67-14.9,13.96-11.28,32.42-17.29,51.95-16.91,15.47.3,29.95,4.65,40.77,12.25.46.32.91.65,1.35.98Z"/>
      <path class="cls-5" d="M225.66,337.84c6.62,1.31,14.08,2.05,22.51,2.05.76,0,1.54,0,2.31-.02,1.51-.02,3.01-.11,4.5-.23-2.67,9.13-3.37,18.9-1.95,28.87v.1s.02.01.02.02c1.36,9.42,4.72,15.82,10.29,19.55,9.6,6.45,23.01,3.1,37.21-.45,12.95-3.23,26.24-6.55,37.01-2.82-9.94,15.58-27.49,29.31-51.79,34.41-10.57,2.22-30.71,4.38-46.81-6.09-12.84-8.36-21.2-24.12-21.81-41.14-.51-14.02,2.36-25.48,8.52-34.25ZM384.2,314.43c-15.68-10.91-35.1-17.42-52.01-17.35-22.83.07-43.47,8.82-56.63,24.03-11.13,12.86-15.71,28.79-13.25,46.09v.11c.97,6.64,3.01,10.93,6.25,13.1,6.14,4.12,17.59,1.26,29.71-1.76,8.87-2.22,18.83-4.7,28.5-4.7s19.1,2.5,26.85,10.27c6.44,6.47,10.09,15.92,10.02,25.95-.05,7.13-1.9,13.96-5.33,19.97,15.36-2.65,29.25-10.1,39.13-21.2,11.92-13.41,17.3-31.08,15.54-51.1-1.41-16.06-11.62-31.47-28.76-43.39Z"/>
      <path class="cls-2" d="M210.49,105.13c6.58-1.34,13.25-1.99,19.91-1.99,32.76,0,65.13,15.7,84.16,42.03.61-1.68,1.21-3.35,1.81-5.01,5.15-14.32,10.49-29.12,17.17-42.9,13.81-28.33,32.28-54.75,53.07-76.17-23.39,9.64-43.87,25.29-63.32,48.19-1.38,1.63-3.7,2.12-5.62,1.18-1.92-.94-2.97-3.06-2.54-5.15,3.9-19.11,11.29-35.71,22.44-50.32-27.17,10.27-45.27,22.23-63.75,47.91-1.29,1.79-3.64,2.44-5.66,1.56-2.02-.87-3.16-3.04-2.74-5.2,2.39-12.25,5.96-21.91,12.48-32.9-35.27,15.46-56.49,40.35-67.4,78.77Z"/>
      <path d="M333.13,275.02c-3.68-1.76-6.32-5.15-7.44-9.54-1.28-5.03-.29-10.63,2.59-14.63,4.78-6.64,14.15-10.13,23.84-8.9.96.12,1.71.9,1.79,1.87s-.53,1.86-1.46,2.14c-4.87,1.45-8.61,6.11-9.11,11.14,1.32-1.32,3.18-2.04,5.29-2.05,2.82.01,5.48,1.37,6.94,3.54,2.51,3.73,1.83,9.29-1.57,12.94-3.35,3.59-8.12,4.67-11.53,4.94-.66.05-1.3.08-1.93.08-2.79,0-5.27-.51-7.4-1.53ZM229.31,295.55c3.29,1.57,7.13,2.37,11.44,2.37.97,0,1.97-.04,2.99-.12,5.27-.42,12.64-2.08,17.83-7.63,5.26-5.63,6.3-14.21,2.43-19.95-2.25-3.34-6.35-5.43-10.68-5.45h-.06c-3.31,0-6.25,1.21-8.28,3.37.66-7.98,6.55-15.41,14.25-17.7,1.4-.41,2.31-1.75,2.19-3.21-.12-1.45-1.24-2.62-2.68-2.81-15.02-1.91-29.51,3.5-36.91,13.77-4.45,6.18-5.99,14.85-4,22.62,1.73,6.79,5.82,12.02,11.49,14.74ZM486.92,268.66c0,61.79-24.06,119.89-67.76,163.59-43.7,43.69-101.79,67.76-163.59,67.76s-119.89-24.06-163.59-67.76c-26.27-26.27-45.44-57.76-56.55-92.11-1.96-.24-3.84-.52-5.6-.8-1.34-.22-2.52-1-3.24-2.16-.71-1.16-.89-2.57-.49-3.86,1.13-3.62,2.65-7.11,4.48-10.45-3.79-15.84-5.92-32.18-6.3-48.82-9.85-7.38-19.09-16.85-23.97-29.33-.52-1.34-.4-2.85.33-4.09.73-1.24,1.99-2.08,3.42-2.27,5.84-.78,13.5-.51,22.03.77,6.41-50.6,29.24-97.39,65.89-134.05,40.29-40.28,92.82-63.87,149.2-67.3,12.79-10.71,28.38-19.08,47.14-25.49,1.93-.66,4.06,0,5.27,1.63,1.22,1.63,1.24,3.86.06,5.52-5.11,7.19-8.89,13.28-11.78,19.23,18.9-19.2,39.85-28.77,69.63-38.43,2.07-.67,4.33.17,5.45,2.03,1.13,1.86.83,4.25-.73,5.77-12.08,11.84-20.89,25.24-26.64,40.63,22.25-22.04,46.26-35.92,74.39-43.18,2.11-.54,4.31.43,5.32,2.36,1.01,1.93.56,4.3-1.09,5.72-16.17,13.97-31.34,31.25-44.5,50.47,20.17,10.69,38.84,24.45,55.44,41.04,43.69,43.7,67.76,101.79,67.76,163.59ZM210.49,105.13c6.58-1.34,13.25-1.99,19.91-1.99,32.76,0,65.13,15.7,84.16,42.03.61-1.68,1.21-3.35,1.81-5.01,5.15-14.32,10.49-29.12,17.17-42.9,13.81-28.33,32.28-54.75,53.07-76.17-23.39,9.64-43.87,25.29-63.32,48.19-1.38,1.63-3.7,2.12-5.62,1.18-1.92-.94-2.97-3.06-2.54-5.15,3.9-19.11,11.29-35.71,22.44-50.32-27.17,10.27-45.27,22.23-63.75,47.91-1.29,1.79-3.64,2.44-5.66,1.56-2.02-.87-3.16-3.04-2.74-5.2,2.39-12.25,5.96-21.91,12.48-32.9-35.27,15.46-56.49,40.35-67.4,78.77ZM363.63,410.15c-.05,7.13-1.9,13.96-5.33,19.97,15.36-2.65,29.25-10.1,39.13-21.2,11.92-13.41,17.3-31.08,15.54-51.1-1.41-16.06-11.62-31.47-28.76-43.39-15.68-10.91-35.1-17.42-52.01-17.35-22.83.07-43.47,8.82-56.63,24.03-11.13,12.86-15.71,28.79-13.25,46.09v.11c.97,6.64,3.01,10.93,6.25,13.1,6.14,4.12,17.59,1.26,29.71-1.76,8.87-2.22,18.83-4.7,28.5-4.7s19.1,2.5,26.85,10.27c6.44,6.47,10.09,15.92,10.02,25.95ZM217.14,372.09c.61,17.02,8.97,32.78,21.81,41.14,16.09,10.47,36.23,8.31,46.81,6.09,24.3-5.1,41.84-18.83,51.79-34.41-10.78-3.72-24.06-.41-37.01,2.82-14.2,3.55-27.61,6.9-37.21.45-5.56-3.74-8.93-10.13-10.29-19.55,0,0,0-.01,0-.02v-.1c-1.43-9.96-.73-19.74,1.94-28.87-1.49.12-2.99.21-4.5.23-.77.01-1.55.02-2.31.02-8.43,0-15.89-.74-22.51-2.05-6.16,8.77-9.03,20.23-8.52,34.25ZM249.67,186.02c-6.79,0-13.79,1.68-20.89,5.08-14.55,6.97-27.92,20.57-36.69,37.32-1.77,3.38-3.31,6.79-4.61,10.22,3.77-5.6,8.34-10.59,13.67-14.9,13.96-11.28,32.42-17.29,51.95-16.91,15.47.3,29.95,4.65,40.77,12.25.46.32.91.65,1.35.98-1.98-4.49-4.45-8.84-7.53-12.81-10.93-14.05-24-21.24-38.02-21.24ZM311.52,290c6.62-1.49,13.54-2.28,20.65-2.3,9.08-.02,18.81,1.66,28.39,4.74,18.81-8.21,26.04-26.39,22.7-56.72-9.05-12.32-21.74-18.25-35.88-16.68-6.88.76-13.58,3.25-19.68,7.1-5.94,4.74-11.54,10.35-16.52,16.15.05.3.1.61.15.91.78,3.02,1.19,6.15,1.22,9.35,1.52,14.28,1.19,26.71-1.03,37.44ZM379.45,218.65c-4.02-11.41-10.5-18.85-19.13-21.84-2.88-1-5.97-1.48-9.17-1.48-10.71,0-22.74,5.39-32.71,15.06-4.24,4.11-8.29,9.35-11.16,15.21.21.66.41,1.31.6,1.97,0,.02.01.04.02.07.25.87.49,1.73.72,2.59,10.2-11.4,23.62-18.94,37.72-20.5,12.07-1.34,23.54,1.84,33.11,8.92ZM183.88,281.19c2.4,32.43,25.95,49.96,66.45,49.31,2.85-.04,5.67-.31,8.42-.74,2.52-5.27,5.77-10.23,9.71-14.79,8.55-9.88,19.81-17.35,32.66-21.96,3.08-10.8,3.76-23.92,2.07-39.63h0s0-.02,0-.03c-.08-.72-.16-1.46-.25-2.21-.02-.2-.05-.4-.07-.6-.08-.63-.16-1.28-.25-1.94-.02-.17-.04-.34-.07-.52-.1-.77-.22-1.56-.34-2.35-4.03-15.2-20.81-28.98-49.32-29.53-32.91-.65-67.02,19.21-69.03,64.98ZM411.73,300.06c-11.75-1.45-24.76-2.36-38.68-2.74,5.76,2.66,11.33,5.81,16.51,9.41,6.49,4.52,12.11,9.52,16.78,14.88,2.03-7.18,3.87-14.37,5.39-21.56ZM398.91,199.76c-14.76-28.83-38.12-57.66-67.42-73.6-2.17,5.73-4.26,11.5-6.3,17.19-1.65,4.57-3.35,9.3-5.06,13.9-.63,1.7-2.19,2.88-4,3.03-.13.01-.26.02-.39.02-1.67,0-3.22-.89-4.06-2.35l-.26-.44c-20.52-35.28-66.06-53.09-106-41.48-49.94,18.2-87.71,60.97-102.96,109.4,33.07-7.77,62.85-13.65,92.27-18.13,8.57-10.74,18.96-19.36,30-24.65,9-4.31,17.98-6.27,26.67-5.98,14.22.06,27.77,6.83,39.55,19.89.04.04.08.08.11.12.17.19.34.36.5.55,9.45-.5,19.32-.86,29.43-1.03,13.77-9.46,29.55-12.72,42.41-8.27,4.69,1.62,9.92,4.56,14.7,9.78,6.98.53,13.94,1.2,20.82,2.03ZM35.32,240.83c14.22,3.13,29.77,8.77,42.98,16.81,1.21-10.74,3.69-20.06,7.32-26.61.63-1.15,1.72-1.97,2.99-2.28,1.15-.28,2.28-.55,3.42-.83,14.81-52.57,54.65-99.56,107.99-119.87,6.21-24.63,16.06-44.33,30.35-59.94-49.75,5.59-95.83,27.67-131.75,63.59-35.29,35.29-57.24,80.38-63.29,129.13ZM37.88,312.36c6.16-7.2,13.95-13.07,22.55-16.96-7.13-3.61-14.09-7.53-20.69-11.34-1.89-1.09-3.84-2.25-5.81-3.48.57,10.76,1.89,21.37,3.95,31.78ZM116.8,441.91c1.66-10.4,2.45-21.59,2.92-34.66.66-18.08-5.5-35.58-12.48-52.58-9.37-7.12-15.77-17.43-20.13-28.08-3.1,3.4-6.57,6.23-10.02,8.06-9.14,4.86-19.21,6.34-28.52,6.34-1,0-1.99-.02-2.97-.05,10.82,31.52,28.76,60.41,53.01,84.66,5.8,5.8,11.88,11.23,18.18,16.3ZM381.64,451.41c-1.48-5.8-2.24-11.79-2.4-17.95-9.58,4.3-20.17,6.76-31.12,7.08-.05,0-.09,0-.14,0-1.88,0-3.58-1.12-4.31-2.86-.75-1.78-.34-3.84,1.05-5.19,6.09-5.93,9.48-13.89,9.54-22.42.06-7.54-2.6-14.56-7.29-19.26-.39-.39-.79-.76-1.19-1.12-13.05,20.16-36.12,34.18-58.1,38.79-6.52,1.37-12.88,2.05-18.97,2.05-13.26,0-25.26-3.2-34.87-9.46-15.36-9.99-25.34-28.64-26.07-48.66-.53-14.71,2.26-27.1,8.29-37.06-12.85-4.16-21.77-10.8-27.95-18.21-31.83,7.8-55.67,16.98-66.57,26.09-2.38,1.99-5.17,4.87-5.68,7.75,7.39,17.97,13.95,36.58,13.22,56.6-.56,15.31-1.58,28.39-3.94,40.72,37.67,27.47,82.9,42.31,130.42,42.31s89.28-13.73,126.06-39.22ZM477.55,268.66c0-59.29-23.09-115.03-65.01-156.96-16.15-16.15-34.35-29.49-54.01-39.8-6.05,9.47-11.61,19.34-16.55,29.47-2.51,5.18-4.84,10.55-7.04,16,18.34,9.77,35.8,24.89,50.81,44.12,9.48,12.15,17.81,25.76,24.42,39.79,1.9.28,3.79.58,5.68.89,1.55.26,2.87,1.27,3.51,2.7,6.81,15.12,17.75,57.82,8.05,93.28-.63,2.31-2.9,3.77-5.27,3.39-.35-.06-.72-.11-1.07-.17-2.08,9.93-4.75,19.84-7.7,29.7,5.09,8.18,8.15,16.94,8.94,25.94,1.99,22.66-4.19,42.77-17.87,58.15-4.58,5.15-9.91,9.59-15.79,13.27-.15,5.87.23,11.53,1.27,16.97,7.91-6.04,15.47-12.63,22.62-19.78,41.92-41.92,65.01-97.67,65.01-156.96Z"/>
      <path class="cls-4" d="M39.74,284.05c6.61,3.81,13.56,7.73,20.69,11.34-8.61,3.89-16.39,9.77-22.55,16.96-2.07-10.41-3.39-21.03-3.95-31.78,1.97,1.23,3.92,2.38,5.81,3.48ZM116.8,441.91c1.66-10.4,2.45-21.59,2.92-34.66.66-18.08-5.5-35.58-12.48-52.58-9.37-7.12-15.77-17.43-20.13-28.08-3.1,3.4-6.57,6.23-10.02,8.06-9.14,4.86-19.21,6.34-28.52,6.34-1,0-1.99-.02-2.97-.05,10.82,31.52,28.76,60.41,53.01,84.66,5.8,5.8,11.88,11.23,18.18,16.3ZM385.74,161.48c9.48,12.15,17.81,25.76,24.42,39.79,1.9.28,3.79.58,5.68.89,1.55.26,2.87,1.27,3.51,2.7,6.81,15.12,17.75,57.82,8.05,93.28-.63,2.31-2.9,3.77-5.27,3.39-.35-.06-.72-.11-1.07-.17-2.08,9.93-4.75,19.84-7.7,29.7,5.09,8.18,8.15,16.94,8.94,25.94,1.99,22.66-4.19,42.77-17.87,58.15-4.58,5.15-9.91,9.59-15.79,13.27-.15,5.87.23,11.53,1.27,16.97,7.91-6.04,15.47-12.63,22.62-19.78,41.92-41.92,65.01-97.67,65.01-156.96s-23.09-115.03-65.01-156.96c-16.15-16.15-34.35-29.49-54.01-39.8-6.05,9.47-11.61,19.34-16.55,29.47-2.51,5.18-4.84,10.55-7.04,16,18.34,9.77,35.8,24.89,50.81,44.12ZM88.61,228.75c1.15-.28,2.28-.55,3.42-.83,14.81-52.57,54.65-99.56,107.99-119.87,6.21-24.63,16.06-44.33,30.35-59.94-49.75,5.59-95.83,27.67-131.75,63.59-35.29,35.29-57.24,80.38-63.29,129.13,14.22,3.13,29.77,8.77,42.98,16.81,1.21-10.74,3.69-20.06,7.32-26.61.63-1.15,1.72-1.97,2.99-2.28Z"/>
    </g>
  </g>
</svg>