<?xml version="1.0" encoding="UTF-8"?>
<svg id="Layer_2" xmlns="http://www.w3.org/2000/svg" version="1.1" viewBox="0 0 750 830">
  <!-- Generator: Adobe Illustrator 29.0.1, SVG Export Plug-In . SVG Version: 2.1.0 Build 192)  -->
  <defs>
    <style>
      .st0 {
        fill: none;
      }

      .st1 {
        fill: #abc2e1;
      }

      .st2 {
        fill: #fff;
      }

      .st3 {
        fill: #f8a712;
      }

      .st4 {
        fill: #5885c4;
      }
    </style>
  </defs>
  <g id="kevin">
    <g>
      <rect class="st0" width="750" height="830"/>
      <g>
        <g>
          <path class="st1" d="M536.3,551.6c-.2,0-.4,0-.6,0-12.8,0-23.1-5.5-30.1-16.1-7.8-11.9-10.9-29.4-10.9-48.5-40.3,13-105.2,14-155.4-9.8-5.1-2.4-9.1-2.8-12.3-1.1-10.4,5.4-14.8,31.4-19.4,58.9-6.8,40-15.1,89.2-46.8,108.7,15.7,15,36.3,26.7,60.1,34.2-15.9-34.8-9.5-73.3,18.9-114.6,1.2-1.8,3.6-2.5,5.6-1.7,2,.8,3.2,3,2.8,5.1-5.8,33.5-6,48.2-.8,66.7,8.1-27.7,20.2-41.7,42.4-60.4,1.7-1.5,4.3-1.5,6,0,1.7,1.5,2.1,4,1,5.9-23.3,38.9-25.4,84.2-21.2,105.2.2,1,.5,2,.7,2.9,13.8.4,27.8-.6,41.5-2.9,17.6-3,33.4-7.5,47.1-13.4-16.9-45.2-11.3-73.7,8.2-121.7.8-2.1,3-3.3,5.2-2.8,2.2.5,3.8,2.4,3.7,4.7,0,2.9-.1,5.7-.2,8.5-.6,29.1-1,49.4,4.5,67.9,4.1-27.2,13.9-42.6,32.5-63.9,1.5-1.7,4-2.1,6-.9,1.9,1.2,2.7,3.6,1.9,5.7-9.1,22.1-12,45-11.8,64.7,1.7-2.3,3.3-4.8,4.9-7.3,12-19.8,17.5-44.5,16.5-74h0Z"/>
          <path class="st1" d="M346.5,115c6.9-1.5,13.9-2.2,20.9-2.2,33.8,0,67.1,16.8,85.7,44.8,27.3-27.8,57-83.5,76.1-123.2-26.8,18.7-51.3,33.8-85,50.3-1.4.7-3,.6-4.3-.1-1.3-.7-2.2-2.1-2.4-3.6-1.9-18.2,2.4-43.6,13.7-62.7-26.6,11.8-48.5,30.7-69.4,59.7-1,1.3-2.6,2.1-4.3,1.9s-3.1-1.2-3.8-2.8c-10-22.6-25.3-35.3-51.4-42,22.9,32,26.7,51.8,24.2,79.9h0Z"/>
        </g>
        <g>
          <path class="st2" d="M511.5,223.4c-3.9-2-8.5-3-13.3-3-8.7,0-18.3,3.2-27.3,9.4-7.1,4.9-12.2,10.3-15.6,15.8,1.1,5.5,1.8,11.4,2,17.8.5,3.2.5,6.4.2,9.5,0,14.2-1.8,26.4-5.2,36.8,6.7-.7,13.6-.7,20.6,0,9,1,18.4,3.7,27.5,7.8,19.7-6.1,28.9-23.6,28.7-54.6-.5-20.1-6.5-33.7-17.6-39.4h0ZM496.3,296.1c-3.4,2.9-7.8,3.6-11.1,3.6s-.5,0-.8,0c-3.6-.1-6.6-1-9-2.5-3.4-2.1-5.7-5.8-6.3-10.2-.7-5.1.9-10.5,4.2-14.1,5.5-6,15.1-8.4,24.5-6.1.9.2,1.6,1.1,1.6,2s-.7,1.8-1.7,2c-5,.9-9.2,5.1-10.2,10,1.5-1.2,3.4-1.7,5.5-1.4,2.8.3,5.2,2,6.5,4.3,2.1,4,.8,9.4-3,12.6h0Z"/>
          <path class="st2" d="M448,263.9c-.7-16.1-4-28.8-10-38.6-9.2-15.1-20.5-23.5-33.6-25,0,0-.1,0-.1,0-2-.3-4.1-.4-6.1-.4-16.4,0-34.3,9.2-48.9,25.4-18.6,20.7-27.1,54.9-19.9,79.5,3.6,12.4,16,33.9,58.1,37.9,2.8.3,5.6.3,8.4.2,3.1-4.9,6.8-9.5,11.2-13.5,9.5-8.8,21.5-14.9,34.7-18,4.2-10.3,6.4-23.2,6.5-38.9,0-.2,0-.3,0-.5.3-2.5.2-5.1-.1-7.6,0-.2,0-.3,0-.5h0ZM403,304.2c-5.3,4.5-12,5.6-17.2,5.6s-.9,0-1.3,0c-5.5-.2-10.2-1.5-14-3.8-5.3-3.3-8.8-8.9-9.7-15.8-1.1-7.9,1.4-16.3,6.5-21.9,8.5-9.3,23.4-13,38-9.5,1.4.3,2.4,1.6,2.3,3.1s-1.1,2.7-2.5,2.9c-7.9,1.4-14.5,8.1-16,15.9,2.3-1.9,5.3-2.8,8.6-2.4,4.3.5,8.1,3,9.9,6.6,3.2,6.1,1.2,14.5-4.6,19.4h0Z"/>
        </g>
        <g>
          <path class="st3" d="M420,423.9c-3.6-2.8-8.4-6.1-13.4-6.5-2.7-.2-5.6.4-8.7,1-4.6.9-9.8,2-15.1.4-6.4-1.9-10.8-6.9-14.6-12.1-5.6-7.5-8.2-14.1-8.1-20.1,0-2.8.7-5.4,1.9-7.7,2.9-5.5,8.4-8.6,12.9-10.6,4.1-1.9,8.2-3.4,12.4-4.8.9-3.9,2-7.6,3.5-11.2-1.5,0-3-.1-4.5-.3-8.8-.9-16.8-2.5-24.1-4.9-7.1,8-11.3,19-12.4,33-1.3,16.9,5.2,33.4,17,43,14.7,12.1,34.8,12.2,45.5,11.2,6-.6,11.6-1.7,16.8-3.2-2.3-1.6-4.5-3.3-6.6-5-.9-.7-1.8-1.5-2.7-2.1h0Z"/>
          <path class="st3" d="M521.3,341.8c-14.3-12.5-32.7-21.1-49.4-22.9-22.5-2.5-43.9,3.9-58.6,17.4-12.4,11.5-18.7,26.7-18.2,44h0c.2,6.8,1.8,11.2,4.7,13.7,5.6,4.8,17.2,3.2,29.5,1.6,6.7-.9,14-1.9,21.2-1.9,12.2,0,24.3,2.8,32.8,13.5,5.6,7.1,8.2,16.8,7,26.7-.9,7-3.4,13.6-7.5,19.1,15.5-.9,30-6.7,41-16.6,13.3-11.9,20.5-28.8,21-48.7.4-16-8-32.4-23.6-46h0Z"/>
        </g>
        <g>
          <path class="st4" d="M249.6,645.7c-.1-.1-.2-.2-.3-.4-7.1-7.3-13.3-15.2-18.2-23.6-1.9-3.3-3.8-6.9-5.6-10.8-6.7,2.3-14.1,4.7-22.2,7-13.1,3.7-38,8-60.6,8.6,14.9,6,31.3,8.5,50.4,7.8,2.1,0,4,1.3,4.6,3.3.6,2-.2,4.2-2.1,5.3-10.4,6.3-21.2,10.3-32.4,12,18.9,7.5,35.3,7.7,54,5.5,2-.2,3.9.8,4.7,2.6s.5,3.9-.9,5.3c-5,5-13.6,9.2-24,12,26.7,9.1,49.4,1.2,58.8-3.1h0c7.6-3.5,13.6-7.3,18.4-11.2-9.2-6.1-17.5-12.9-24.7-20.5h0Z"/>
          <path class="st4" d="M527.5,334.8c2,1.7,3.8,3.5,5.5,5.2.6-4,1-8,1.1-12.1-6.6-1.4-13.6-2.6-20.9-3.7,5,3.1,9.8,6.6,14.2,10.5h0Z"/>
          <path class="st4" d="M471.7,462.2c-1.9-.2-3.5-1.5-4.1-3.3s0-3.8,1.6-5c6.7-5.2,10.9-12.6,11.9-21.1.9-7.4-1-14.6-5-19.8-.3-.4-.7-.8-1-1.2-1.5,1.8-3.1,3.6-4.8,5.3-.2.2-.4.4-.6.6-.3.3-.6.5-.8.8-7.2,7-15.9,12.9-25.7,17.2-.3.1-.6.2-.8.3-9.4,4.1-19.4,6.7-28.9,7.6-3.1.3-6.2.5-9.2.5-17.1,0-32.2-4.8-43.1-13.7-14-11.6-21.8-31.1-20.3-50.9,1.1-14.7,5.3-26.7,12.5-35.9-11.2-5.2-20-12.4-26-21.4-17,2-32,4.7-44.4,7.8.4,13.1,2.1,26,6.4,38.4,2.1,6.1,4.8,12.1,7.5,18,3.7,8.1,7.5,16.5,9.8,25.4,7.8,29.5-3.3,63.9-15.3,96.5-7.4,20-15.9,33.2-26.8,41.4-9.1,6.9-19.7,10.3-32.3,10.3s-4,0-6-.3c-1.7,20.4,2.6,39.8,13,57.5,4.1,7,9.1,13.6,14.9,19.7,29.6-16.5,37.8-64.5,44.3-103.4,5.5-32.4,9.9-58.1,24.3-65.6,5.9-3,12.8-2.7,20.6,1,30.8,14.6,63.3,17.9,85.2,18,24.5.2,48.4-3.3,66.5-9.7.3-5.5.7-11,1.4-16.5-5.7,1.3-11.6,1.9-17.6,1.9s-4.6,0-6.9-.3h0Z"/>
          <path class="st4" d="M528.8,226.7c5.2,1.1,10.4,2.2,15.4,3.4-3.2-8.7-7.3-17.8-12.2-26.8l-4.4,2.4c-.7.4-1.5.6-2.2.6-1.3,0-2.7-.6-3.6-1.7l-33-40.1c-.9-1.1-1.2-2.5-1-3.9s1.2-2.6,2.4-3.2l4.7-2.4c-5.2-4.8-10.7-9.2-16.5-13.1-7.6,10.4-15.3,19.5-22.9,26.4-.9.8-2,1.2-3.1,1.2s-.5,0-.7,0c-1.4-.2-2.6-1.1-3.3-2.3l-.2-.4c-20.4-35-65.6-52.7-105.3-41.2-45.8,16.7-81.2,54.2-98.4,97.6,35.3-4.2,69.1-7,101.9-8.2,17.9-17.9,39.7-26.8,59.3-23.9,14.3,1.7,27.2,10.2,37.4,24.8,9.9.6,19.5,1.4,29,2.3,15.2-8.2,31.5-9.5,43.9-3.1,4.3,2.2,9,5.8,13,11.6h0ZM416.4,163.6c-.4,1.3-1.3,2.4-2.6,3l-60.3,27.3c-.6.3-1.3.4-1.9.4-1.5,0-3-.8-3.9-2.1l-6.1-9.3c-1.4-2.1-.8-4.9,1.2-6.4l53-37.1c2.1-1.5,5-1,6.5,1.1l13.3,19c.8,1.1,1,2.6.7,3.9h0Z"/>
          <path class="st4" d="M568.2,462c-2.5-3.7-5-7.6-7.3-11.4-15.9-26.3-4.8-46.4,6-65.9,9.6-17.3,18.6-33.6,10.5-55.1-6-16.1-19.8-29.1-36.1-34.6,3.4,18.2,3.2,36.7-.3,54.2,9,12.2,13.7,25.5,13.3,38.8-.5,22.6-8.9,41.7-24.1,55.4-7,6.3-15.3,11.1-24.2,14.4-4.4,32.8-1.7,58.6,7.5,72.6,6.2,9.4,15.1,13.2,27.4,11.6,15.7-2,29.7-10.2,37.6-21.8,1.5-2.2,2.8-4.5,3.8-6.7,8.1-18.2-2.6-34.3-13.9-51.4h0Z"/>
          <path class="st4" d="M216.1,548.7c5.7,1.2,11,1.8,15.9,1.8,23.6,0,38.7-14.1,50.3-45.6,9-24.6,22.7-61.8,15.1-91-2.1-8.2-5.6-15.8-9.3-23.9-2.7-6-5.6-12.3-7.8-18.8-10-29.3-7.2-61-3.9-89.5-17.9,1.4-35,11.4-44.6,26.5-12.4,19.4-6.9,37.2-1.2,56.1,6.5,21.2,13.2,43.2-7.8,65.7-6.3,6.8-13.7,12.8-20.8,18.7-14.9,12.3-28.9,23.9-31.8,40-1.4,7.7-.2,16,3.6,25.5,6.8,17,23.4,30.5,42.3,34.5h0Z"/>
        </g>
        <g>
          <path d="M370.6,305.9c3.8,2.4,8.5,3.6,14,3.8.4,0,.8,0,1.3,0,5.1,0,11.9-1,17.2-5.6,5.8-5,7.8-13.3,4.6-19.4-1.9-3.5-5.7-6.1-9.9-6.6-3.3-.4-6.4.5-8.6,2.4,1.5-7.8,8.2-14.5,16-15.9,1.4-.2,2.5-1.5,2.5-2.9,0-1.5-.9-2.7-2.3-3.1-14.6-3.6-29.5.2-38,9.5-5.1,5.6-7.6,14-6.5,21.9,1,6.9,4.4,12.5,9.7,15.8h0Z"/>
          <path d="M575.9,456.9c-2.4-3.6-4.9-7.4-7.2-11.1-13.1-21.7-4.2-37.9,6.2-56.5,9.7-17.5,20.7-37.3,11.1-62.9-3.8-10-10.1-19-18-26.1,3-26.1-1.2-51.6-4.8-62.9-.5-1.5-1.7-2.6-3.2-3.1-1.6-.5-3.3-.9-5-1.4-4.1-12.7-9.9-25.5-16.8-37.6,0-.1-.1-.3-.2-.5l-23.4-44.8c-1.2-2.3-4-3.2-6.3-2l-4.8,2.5c-6.4-6.1-13-11.5-19.9-16.2,24.5-35.3,47.8-82.2,61.6-112.1.9-1.9.4-4.2-1.2-5.5-1.6-1.4-4-1.4-5.7-.2-30.8,22.1-56.2,38.8-91.9,56.6-.3-20.7,7.1-47.4,21.7-61.7,1.5-1.5,1.8-3.9.7-5.7s-3.4-2.7-5.4-2c-33.6,10.9-60,30.3-84.6,62.6-13-24.1-33.4-37.1-66.8-42.9-1.9-.3-3.8.5-4.8,2.2-1,1.6-.9,3.7.3,5.2,28.5,36.9,32.8,54.7,29.3,87-48.6,18.6-85.9,59.6-102.9,106.7-.2,0-.4,0-.7,0-1.3.2-2.4.9-3.2,1.9-4.3,6.1-7.8,15-10.2,25.4-22.5-17.5-54-27.6-71.1-27.3-1.4,0-2.8.7-3.6,1.9-.9,1.1-1.1,2.6-.8,4,5.2,19.6,21.2,33.4,34.5,43.2,6.1,4.5,12.5,9.1,19.2,13.5-16.6,5.4-31.1,17.8-38.1,33.6-.5,1.2-.5,2.6,0,3.9s1.7,2.1,3,2.5c7.4,2,16.9,4.2,26.9,4.2s13.6-1,20.2-3.6c1.9-.7,3.7-1.7,5.6-2.9-2.2,15,2.1,29.2,6.1,42.2,6.2,20.4,11.6,38.1-5.7,56.6-5.9,6.3-13,12.2-19.9,17.9-15.5,12.8-31.6,26.1-35.1,45.6-1.7,9.5-.4,19.5,4.1,30.6,8.1,20.1,26.8,35.4,49,40.1.8.2,1.7.3,2.5.5-1.5,16.9,1,31.6,5.3,44.1-6.4,2.2-13.5,4.5-21.3,6.8-14.4,4.1-52.1,10.5-77.8,7.5-2.1-.3-4.2,1-4.9,3-.7,2,0,4.3,1.8,5.5,16,10.4,33.2,16.3,53.2,18.1-8.9,2.8-18.2,4-28,3.4-2.2-.1-4.1,1.3-4.7,3.3s.3,4.3,2.2,5.3c18.4,10.4,34.4,15.3,53.7,15.7-4.6,1.3-9.8,2.4-15.1,3.1-2,.2-3.6,1.8-4,3.8-.4,2,.6,4,2.4,5,15.4,8.4,30.1,11.2,42.8,11.2s30.5-5,37.5-8.2c9.7-4.5,17.1-9.4,22.9-14.5,12.7,7.3,27,13.2,42.4,17.5.8.2,1.5.4,2.3.6,9.4,13.9,23.5,25.7,40,33.2,12.3,5.6,25.1,8.5,37.2,8.5s16.5-1.4,23.8-4.2c2.1-.8,3.3-2.9,2.9-5.1-.4-2.2-2.2-3.8-4.4-3.9-13.9-.6-36-4.5-46.5-21.4.6,0,1.2,0,1.8,0,.8,0,1.7,0,2.5,0,1,0,1.9,0,2.7-.2,10.7-.2,21.4-1.3,31.9-3.1,4.8-.8,9.5-1.8,14-2.8,16.8,1.9,32.9,6.8,48.4,11.6,18.8,5.8,37,11.3,55.2,11.3s25.8-2.8,39-10.2c1.9-1.1,2.8-3.4,2.1-5.5s-2.7-3.4-4.9-3.2c-43,4.5-48.6-10.9-51.6-19.2-2.5-7-4.8-16.9-5.9-28.7,4.5-5.1,8.6-10.5,12.1-16.3,13-21.4,18.9-48.1,17.8-79.8,16.8-3.1,31.8-12.4,40.5-25.3,1.8-2.7,3.3-5.4,4.6-8.2h0c10.1-22.9-2.5-41.9-14.7-60.3h0ZM483.4,407.2c-8.5-10.7-20.5-13.5-32.8-13.5s-14.5,1-21.2,1.9c-12.3,1.6-23.9,3.2-29.5-1.6-3-2.5-4.5-7-4.7-13.6h0c-.5-17.4,5.8-32.7,18.2-44.1,14.7-13.5,36-19.9,58.6-17.4,16.7,1.8,35.1,10.4,49.4,22.9,15.6,13.7,24,30,23.6,46-.5,20-7.8,36.8-21,48.7-11,9.9-25.5,15.7-41,16.6,4-5.5,6.6-12.1,7.5-19.1,1.2-9.9-1.4-19.6-7-26.7h0ZM349.3,225.3c14.6-16.2,32.4-25.4,48.9-25.4s4.1.1,6.1.4c0,0,.1,0,.1,0,13,1.5,24.3,9.9,33.6,25,6,9.9,9.3,22.5,10,38.6,0,.2,0,.3,0,.5.4,2.5.4,5.1.1,7.6,0,.2,0,.3,0,.5,0,15.7-2.2,28.6-6.5,38.9-13.2,3.1-25.1,9.2-34.7,18-4.4,4.1-8.1,8.6-11.2,13.5-2.8.1-5.6,0-8.4-.2-42-4.1-54.4-25.5-58.1-37.9-7.2-24.6,1.4-58.8,19.9-79.5h0ZM500.5,317.5c-9.1-4.1-18.5-6.8-27.5-7.8-7-.8-13.9-.8-20.6,0,3.4-10.3,5.1-22.5,5.2-36.8.3-3.2.3-6.4-.2-9.5-.3-6.4-1-12.3-2-17.8,3.4-5.5,8.5-10.9,15.6-15.8,9-6.1,18.7-9.4,27.3-9.4s9.4,1,13.3,3c11.1,5.7,17.2,19.3,17.6,39.4.2,31-9,48.5-28.7,54.6h0ZM386.6,352c1.5.1,3,.2,4.5.3-1.5,3.6-2.7,7.4-3.5,11.2-4.1,1.4-8.3,3-12.4,4.8-4.5,2-10,5.1-12.9,10.6-1.2,2.4-1.9,5-1.9,7.7-.1,6,2.5,12.6,8.1,20.1,3.8,5.1,8.2,10.2,14.6,12.1,5.3,1.6,10.5.5,15.1-.4,3.1-.6,6-1.2,8.7-1,5,.4,9.8,3.6,13.4,6.5.9.7,1.8,1.4,2.7,2.1,2.1,1.7,4.3,3.4,6.6,5-5.3,1.6-10.9,2.7-16.8,3.2-10.7,1-30.8.9-45.5-11.2-11.7-9.7-18.2-26.2-17-43,1.1-14,5.2-25,12.4-33,7.3,2.4,15.4,4.1,24.1,4.9h0ZM527.5,334.8c-4.4-3.9-9.2-7.4-14.2-10.5,7.3,1.1,14.3,2.3,20.9,3.7-.2,4-.6,8.1-1.1,12.1-1.8-1.8-3.6-3.5-5.5-5.2h0ZM322.4,35.1c26.2,6.7,41.5,19.5,51.4,42,.7,1.5,2.1,2.6,3.8,2.8,1.7.2,3.3-.6,4.3-1.9,20.9-29,42.7-47.9,69.4-59.7-11.2,19-15.6,44.4-13.7,62.7.2,1.5,1,2.8,2.4,3.6,1.3.7,2.9.8,4.3.1,33.7-16.5,58.2-31.6,85-50.3-19.1,39.7-48.8,95.4-76.1,123.2-18.6-28-51.9-44.8-85.7-44.8s-14,.7-20.9,2.2c2.5-28.1-1.3-47.9-24.2-79.9h0ZM342.6,125.6c39.7-11.5,84.9,6.2,105.3,41.2l.2.4c.7,1.2,1.9,2.1,3.3,2.3.2,0,.5,0,.7,0,1.2,0,2.3-.4,3.1-1.2,7.5-6.9,15.2-16,22.9-26.4,5.8,3.9,11.3,8.4,16.5,13.1l-4.7,2.4c-1.2.6-2.1,1.8-2.4,3.2s0,2.8,1,3.9l33,40.1c.9,1.1,2.2,1.7,3.6,1.7s1.5-.2,2.2-.6l4.4-2.4c4.9,9,9,18,12.2,26.8-5-1.2-10.1-2.3-15.4-3.4-4-5.8-8.7-9.4-13-11.6-12.4-6.4-28.7-5.1-43.9,3.1-9.4-.9-19-1.7-29-2.3-10.2-14.6-23-23.1-37.4-24.8-19.6-2.9-41.5,6-59.3,23.9-32.8,1.2-66.6,3.9-101.9,8.2,17.1-43.5,52.6-80.9,98.4-97.6h0ZM216.1,548.7c-18.9-4-35.5-17.5-42.3-34.5-3.8-9.4-4.9-17.8-3.6-25.5,2.9-16.1,17-27.8,31.8-40,7.1-5.9,14.4-11.9,20.8-18.7,21-22.5,14.3-44.4,7.8-65.7-5.8-18.9-11.2-36.7,1.2-56.1,9.6-15.1,26.8-25.2,44.6-26.5-3.2,28.5-6.1,60.2,3.9,89.5,2.2,6.5,5,12.7,7.8,18.8,3.7,8.1,7.1,15.8,9.3,23.9,7.6,29.1-6,66.3-15.1,90.9-11.6,31.5-26.7,45.6-50.3,45.6s-10.2-.6-15.9-1.8h0ZM232.1,559.8c12.6,0,23.2-3.4,32.3-10.3,10.9-8.3,19.4-21.4,26.8-41.4,12-32.7,23.1-67,15.3-96.5-2.3-8.9-6.1-17.3-9.8-25.4-2.6-5.9-5.4-11.9-7.5-18-4.2-12.3-6-25.3-6.4-38.4,12.4-3.1,27.4-5.8,44.4-7.8,6,9,14.9,16.2,26,21.4-7.2,9.2-11.4,21.2-12.5,35.9-1.5,19.8,6.3,39.4,20.3,50.9,10.9,9,26,13.7,43.1,13.7s6.1-.1,9.2-.5c9.5-.9,19.5-3.5,28.9-7.6.3,0,.6-.1.8-.3,9.8-4.4,18.6-10.3,25.7-17.2.3-.3.6-.5.8-.8.2-.2.4-.4.6-.6,1.7-1.7,3.2-3.4,4.8-5.3.4.4.7.8,1,1.2,4.1,5.2,5.9,12.4,5,19.8-1,8.4-5.2,15.9-11.9,21.1-1.5,1.2-2.2,3.2-1.6,5,.5,1.8,2.2,3.2,4.1,3.3,2.3.2,4.6.3,6.9.3,6,0,11.9-.7,17.6-1.9-.6,5.5-1.1,11-1.4,16.5-18.1,6.4-42,9.9-66.5,9.7-21.9-.2-54.4-3.4-85.2-18-7.8-3.7-14.7-4-20.6-1-14.5,7.5-18.8,33.1-24.3,65.6-6.6,38.9-14.8,86.9-44.4,103.4-5.8-6.2-10.8-12.7-14.9-19.7-10.4-17.8-14.8-37.1-13-57.5,2.1.2,4.1.3,6,.3h0ZM255.9,677.4h0c-9.4,4.3-32.1,12.2-58.8,3.1,10.4-2.8,19-7,24-12,1.4-1.4,1.8-3.5.9-5.3s-2.8-2.8-4.7-2.6c-18.7,2.2-35.1,1.9-54-5.5,11.3-1.8,22-5.7,32.4-12,1.8-1.1,2.7-3.3,2.1-5.3s-2.5-3.4-4.6-3.3c-19.1.7-35.6-1.8-50.4-7.8,22.6-.6,47.5-4.8,60.6-8.6,8.1-2.3,15.5-4.7,22.2-7,1.7,3.9,3.6,7.4,5.6,10.8,4.9,8.4,11.1,16.3,18.2,23.6.1.1.2.2.3.4,7.2,7.6,15.5,14.4,24.7,20.5-4.8,3.9-10.8,7.7-18.4,11.2h0ZM519.8,625.6c-1.5,2.5-3.1,4.9-4.9,7.3-.3-19.7,2.7-42.7,11.8-64.7.9-2.1,0-4.5-1.9-5.7-1.9-1.2-4.5-.8-6,.9-18.6,21.2-28.4,36.6-32.5,63.9-5.6-18.5-5.2-38.7-4.5-67.9,0-2.7.1-5.6.2-8.5,0-2.2-1.5-4.2-3.7-4.7s-4.4.7-5.2,2.8c-19.4,48-25.1,76.5-8.2,121.7-13.8,5.9-29.5,10.4-47.1,13.4-13.7,2.4-27.6,3.3-41.5,2.9-.3-1-.5-1.9-.7-2.9-4.3-21-2.1-66.3,21.2-105.2,1.2-2,.8-4.5-1-5.9-1.7-1.5-4.3-1.5-6,0-22.1,18.7-34.2,32.7-42.4,60.4-5.2-18.5-5-33.2.8-66.7.4-2.2-.8-4.3-2.8-5.1-2-.8-4.4-.1-5.6,1.7-28.5,41.3-34.8,79.9-18.9,114.6-23.9-7.5-44.4-19.2-60.1-34.2,31.7-19.6,40-68.8,46.8-108.7,4.7-27.5,9.1-53.5,19.4-58.9,3.2-1.7,7.2-1.3,12.3,1.1,50.2,23.8,115.1,22.8,155.4,9.8,0,19.1,3.1,36.7,10.9,48.5,7,10.6,17.3,16.1,30.1,16.1s.4,0,.6,0c.9,29.5-4.6,54.2-16.5,74h0ZM582.1,513.4c-1,2.2-2.2,4.5-3.8,6.7-7.8,11.6-21.9,19.8-37.6,21.8-12.3,1.6-21.2-2.2-27.4-11.6-9.2-14-11.8-39.8-7.5-72.6,9-3.2,17.2-8.1,24.3-14.4,15.2-13.7,23.5-32.8,24.1-55.4.3-13.3-4.3-26.6-13.3-38.8,3.5-17.5,3.7-36,.3-54.2,16.3,5.5,30.1,18.4,36.1,34.6,8.1,21.6-.9,37.9-10.5,55.1-10.8,19.4-21.9,39.5-6,65.9,2.3,3.9,4.9,7.7,7.3,11.4,11.3,17.1,22,33.2,13.9,51.4h0Z"/>
          <path d="M492.8,279.2c-2.1-.2-4,.3-5.5,1.4,1.1-4.9,5.3-9.1,10.2-10,1-.2,1.6-1,1.7-2s-.6-1.8-1.6-2c-9.4-2.3-19.1.1-24.5,6.1-3.3,3.6-4.9,9-4.2,14.1.6,4.5,2.9,8.1,6.3,10.2,2.4,1.5,5.5,2.4,9,2.5.3,0,.5,0,.8,0,3.3,0,7.7-.7,11.1-3.6,3.8-3.2,5-8.6,3-12.6-1.2-2.3-3.7-3.9-6.5-4.3h0Z"/>
          <path d="M351.7,194.3c.6,0,1.3-.1,1.9-.4l60.3-27.3c1.3-.6,2.2-1.7,2.6-3,.4-1.3.1-2.8-.7-3.9l-13.3-19c-1.5-2.1-4.4-2.6-6.5-1.1l-53,37.1c-2.1,1.4-2.6,4.3-1.2,6.4l6.1,9.3c.9,1.4,2.4,2.1,3.9,2.1h0Z"/>
        </g>
      </g>
    </g>
  </g>
</svg>